<?xml version="1.0" standalone="no"?>
<!DOCTYPE svg PUBLIC "-//W3C//DTD SVG 20010904//EN"
 "http://www.w3.org/TR/2001/REC-SVG-20010904/DTD/svg10.dtd">
<svg version="1.0" xmlns="http://www.w3.org/2000/svg"
 width="48.000000pt" height="48.000000pt" viewBox="0 0 48.000000 48.000000"
 preserveAspectRatio="xMidYMid meet">

<g transform="translate(0.000000,48.000000) scale(0.100000,-0.100000)"
fill="#000000" stroke="none">
<path d="M232 428 c-7 -7 -12 -20 -12 -30 0 -13 8 -18 30 -18 l31 0 -16 30
c-18 34 -17 34 -33 18z m28 -29 c0 -5 -7 -9 -15 -9 -15 0 -20 12 -9 23 8 8 24
-1 24 -14z"/>
<path d="M333 398 c-28 -14 -29 -24 -3 -38 26 -14 40 -5 40 26 0 26 -4 28 -37
12z m27 -24 c0 -9 -5 -14 -12 -12 -18 6 -21 28 -4 28 9 0 16 -7 16 -16z"/>
<path d="M110 372 c0 -4 7 -18 16 -30 15 -22 17 -23 36 -5 18 16 18 18 2 30
-20 14 -54 18 -54 5z m43 -8 c9 -9 -4 -35 -14 -28 -5 3 -9 12 -9 20 0 14 12
19 23 8z"/>
<path d="M174 306 c-30 -30 -34 -40 -34 -86 0 -28 4 -60 10 -70 19 -36 126
-53 173 -28 36 19 46 40 47 97 0 47 -4 57 -34 87 -29 29 -41 34 -81 34 -40 0
-52 -5 -81 -34z m157 -5 c25 -25 29 -37 29 -85 0 -48 -3 -57 -27 -76 -23 -18
-38 -21 -85 -18 -78 6 -98 25 -98 96 0 48 4 57 31 83 44 41 108 41 150 0z"/>
<path d="M290 248 c0 -4 4 -8 9 -8 6 0 12 4 15 8 3 5 -1 9 -9 9 -8 0 -15 -4
-15 -9z"/>
<path d="M210 236 c7 -7 14 -6 21 1 9 9 7 12 -9 10 -14 -1 -18 -5 -12 -11z"/>
<path d="M280 181 c0 -8 -7 -11 -17 -6 -15 5 -16 4 -5 -6 9 -10 15 -10 24 -1
6 6 9 15 5 19 -4 3 -7 1 -7 -6z"/>
<path d="M395 310 c-8 -13 3 -50 15 -50 13 0 40 42 34 52 -7 11 -42 10 -49 -2z
m35 -14 c0 -8 -4 -18 -10 -21 -5 -3 -10 -4 -10 -1 0 2 -3 11 -6 20 -4 11 -1
16 10 16 9 0 16 -6 16 -14z"/>
<path d="M61 269 l-25 -10 21 -21 c26 -26 56 -18 51 14 -4 26 -15 30 -47 17z
m36 -35 c-6 -7 -37 7 -37 16 0 15 35 16 38 2 2 -7 2 -16 -1 -18z"/>
<path d="M415 180 c-8 -26 1 -40 26 -40 21 0 24 12 9 41 -14 25 -27 24 -35 -1z
m35 -22 c0 -5 -7 -8 -15 -8 -15 0 -20 21 -8 33 7 7 23 -11 23 -25z"/>
<path d="M76 148 c-19 -26 -7 -43 23 -33 24 7 27 27 7 44 -11 10 -17 7 -30
-11z m30 -17 c-4 -6 -14 -11 -22 -11 -12 0 -12 3 -2 20 7 11 16 16 21 11 5 -5
6 -14 3 -20z"/>
<path d="M364 105 c-7 -18 3 -35 22 -35 8 0 14 10 14 25 0 27 -27 35 -36 10z
m26 -10 c0 -8 -4 -15 -10 -15 -5 0 -10 7 -10 15 0 8 5 15 10 15 6 0 10 -7 10
-15z"/>
<path d="M156 93 c-10 -10 -7 -51 5 -58 10 -7 49 21 49 35 0 10 -47 30 -54 23z
m37 -20 c8 -7 -11 -33 -24 -33 -5 0 -9 9 -9 20 0 19 20 27 33 13z"/>
<path d="M260 64 c0 -3 5 -14 10 -25 13 -23 36 -25 44 -3 11 28 7 34 -24 34
-16 0 -30 -3 -30 -6z m50 -13 c0 -18 -18 -21 -30 -6 -10 13 -9 15 9 15 11 0
21 -4 21 -9z"/>
</g>
</svg>
